<svg xmlns="http://www.w3.org/2000/svg" width="24" height="24" viewBox="0 0 24 24"><path fill="#ffffff" d="M17.75 14.95L16.3 13.5q.2-.35.363-.725t.237-.8q.1-.425.388-.7T18 11q.425 0 .7.3t.225.725q-.125.8-.425 1.538t-.75 1.387m-2.95-3L9 6.15V5q0-1.25.875-2.125T12 2q1.25 0 2.125.875T15 5v6q0 .275-.062.5t-.138.45M11 20v-2.1q-2.3-.3-3.937-1.925t-1.988-3.95q-.05-.425.225-.725T6 11q.425 0 .713.288T7.1 12q.35 1.75 1.738 2.875T12 16q.85 0 1.613-.262T15 15l1.425 1.425q-.725.575-1.588.963T13 17.9V20q0 .425-.288.713T12 21q-.425 0-.712-.288T11 20m8.1 1.9l-17-17q-.275-.275-.275-.7t.275-.7q.275-.275.7-.275t.7.275l17 17q.275.275.275.7t-.275.7q-.275.275-.7.275t-.7-.275"/></svg>